<svg fill="#E94560" id="Layer_10" data-name="Layer 10" xmlns="http://www.w3.org/2000/svg" viewBox="0 0 101.4 117.44"><polygon points="93 42.54 101.4 0 50.7 43.62 0 0 8.4 42.54 50.7 78.9 93 42.54"/><path d="M414.91,320.42l-9.13,7.85h17.74a12.18,12.18,0,0,0,12-9.83l3.73-18.9L425.9,311Z" transform="translate(-349.3 -241.28)"/><path d="M385.09,320.42l-11-9.44-13.3-11.44,3.73,18.9a12.18,12.18,0,0,0,12,9.83h17.74Z" transform="translate(-349.3 -241.28)"/><polygon points="63.04 105.73 58.55 104.47 50.7 117.44 42.85 104.47 38.36 105.73 50.7 91.49 63.04 105.73"/></svg>